<?xml version="1.0" standalone="no"?>
<!DOCTYPE svg PUBLIC "-//W3C//DTD SVG 20010904//EN"
 "http://www.w3.org/TR/2001/REC-SVG-20010904/DTD/svg10.dtd">
<svg version="1.0" xmlns="http://www.w3.org/2000/svg"
 width="700.000000pt" height="700.000000pt" viewBox="0 0 700.000000 700.000000"
 preserveAspectRatio="xMidYMid meet">
<metadata>
Created by potrace 1.11, written by Peter Selinger 2001-2013
</metadata>
<g transform="translate(0.000000,700.000000) scale(0.100000,-0.100000)"
fill="#000000" stroke="none">
<path d="M3327 6414 c-1 -1 -36 -4 -77 -8 -149 -13 -337 -43 -447 -72 -32 -9
-65 -17 -73 -19 -180 -43 -476 -166 -678 -282 -229 -132 -407 -268 -598 -458
-136 -136 -155 -156 -245 -270 -309 -388 -541 -928 -595 -1390 -4 -27 -8 -52
-9 -55 -8 -13 -19 -227 -19 -360 0 -373 52 -665 181 -1015 147 -398 364 -736
673 -1046 231 -232 463 -401 748 -543 179 -90 282 -130 557 -215 35 -11 202
-47 260 -56 213 -32 296 -39 485 -39 141 0 318 9 363 19 12 2 41 7 65 9 138
17 340 65 507 121 654 219 1212 666 1572 1260 209 345 334 702 397 1135 26
176 26 538 1 730 -75 561 -289 1056 -649 1500 -83 103 -294 312 -396 394 -47
37 -94 75 -105 84 -28 23 -211 144 -265 176 -48 28 -296 151 -370 184 -68 30
-273 98 -380 126 -119 32 -295 62 -470 82 -50 5 -427 13 -433 8z m271 -742
c184 -294 314 -570 422 -889 l37 -113 -46 -1 c-25 0 -274 -1 -553 -2 -469 -2
-508 -1 -508 15 0 29 87 271 153 424 79 183 184 382 305 576 66 105 89 135 98
127 7 -6 49 -68 92 -137z m-938 -134 c-75 -156 -166 -375 -208 -503 -33 -99
-84 -267 -88 -292 -13 -72 -15 -73 -116 -73 -410 -2 -751 0 -755 3 -6 7 34 72
105 172 230 321 509 562 852 734 74 37 144 70 155 74 11 4 40 15 65 26 25 10
50 19 57 20 6 1 -24 -72 -67 -161z m1682 136 c40 -15 82 -33 93 -40 11 -8 24
-14 31 -14 18 0 234 -120 324 -180 261 -175 495 -411 664 -672 31 -47 56 -90
56 -95 0 -4 -191 -8 -425 -8 l-425 0 -16 55 c-91 323 -196 601 -312 834 -64
126 -73 146 -67 146 2 0 37 -12 77 -26z m-2117 -1619 c-6 -42 -20 -191 -30
-320 -7 -95 -8 -362 0 -460 10 -144 24 -293 31 -327 3 -16 2 -28 -3 -29 -46
-4 -967 -3 -974 2 -6 3 -19 48 -29 100 -26 130 -29 146 -36 209 -3 30 -7 71
-10 90 -6 44 -6 326 0 360 3 14 7 52 10 85 3 33 8 74 11 90 15 84 38 192 45
210 7 20 15 20 499 20 l491 0 -5 -30z m1953 21 c7 -4 12 -13 10 -19 -1 -7 2
-34 6 -62 36 -251 42 -732 11 -894 -2 -12 -7 -48 -10 -79 -8 -80 -10 -91 -18
-98 -5 -5 -1229 -10 -1342 -5 -12 1 -21 8 -21 19 -1 16 -11 101 -19 167 -26
194 -26 658 -1 791 3 17 19 145 20 167 1 4 6 11 13 15 15 10 1335 8 1351 -2z
m1577 2 c3 -3 8 -15 10 -27 2 -13 7 -30 9 -39 9 -26 37 -191 42 -247 3 -27 7
-61 10 -75 5 -31 6 -337 0 -365 -2 -11 -7 -53 -10 -94 -4 -41 -9 -77 -10 -80
-2 -3 -7 -26 -10 -51 -3 -25 -14 -76 -23 -114 l-18 -70 -480 1 c-264 1 -486 2
-492 2 -9 1 -11 13 -8 39 12 82 14 101 21 192 3 52 8 111 10 130 9 104 3 454
-10 570 -3 25 -8 74 -11 110 -3 36 -8 77 -11 92 -4 22 -1 27 18 30 40 5 957 2
963 -4z m-3425 -1747 c11 -1 22 -28 38 -89 34 -134 120 -389 166 -497 7 -16
33 -75 56 -130 23 -55 67 -149 97 -208 62 -125 69 -121 -87 -55 -192 81 -337
164 -512 295 -103 77 -314 279 -384 368 -21 28 -41 52 -44 55 -45 45 -174 251
-162 259 8 4 751 6 832 2z m1716 0 c18 -1 -82 -286 -171 -486 -40 -89 -141
-290 -188 -370 -63 -109 -178 -285 -187 -285 -29 0 -273 426 -375 655 -71 159
-175 441 -175 474 0 14 52 16 542 14 299 -1 548 -2 554 -2z m1446 0 c27 -1 27
-1 -41 -104 -102 -153 -181 -249 -315 -382 -184 -183 -385 -326 -616 -439 -98
-47 -251 -109 -257 -103 -1 1 24 54 56 117 118 237 256 600 325 860 l15 55
403 -2 c222 -1 415 -2 430 -2z"/>
</g>
</svg>
